Coordinates
version=1
nRows=4
nColumns=63
inDegrees=yes

Units are S.I. units (second, meters, Newtons, ...)
If the header above contains a line with 'inDegrees', this indicates whether rotational values are in degrees (yes) or radians (no).

endheader
time	pelvis_tilt	pelvis_list	pelvis_rotation	pelvis_tx	pelvis_ty	pelvis_tz	hip_flexion_r	hip_adduction_r	hip_rotation_r	knee_angle_r	knee_angle_r_beta	ankle_angle_r	subtalar_angle_r	mtp_angle_r	hip_flexion_l	hip_adduction_l	hip_rotation_l	knee_angle_l	knee_angle_l_beta	ankle_angle_l	subtalar_angle_l	mtp_angle_l	L5_S1_Flex_Ext	L5_S1_Lat_Bending	L5_S1_axial_rotation	L4_L5_Flex_Ext	L4_L5_Lat_Bending	L4_L5_axial_rotation	L3_L4_Flex_Ext	L3_L4_Lat_Bending	L3_L4_axial_rotation	L2_L3_Flex_Ext	L2_L3_Lat_Bending	L2_L3_axial_rotation	L1_L2_Flex_Ext	L1_L2_Lat_Bending	L1_L2_axial_rotation	L1_T12_Flex_Ext	L1_T12_Lat_Bending	L1_T12_axial_rotation	Abs_r3	Abs_r2	Abs_r1	Abs_t1	Abs_t2	neck_flexion	neck_bending	neck_rotation	arm_flex_r	arm_add_r	arm_rot_r	elbow_flex_r	pro_sup_r	wrist_flex_r	wrist_dev_r	arm_flex_l	arm_add_l	arm_rot_l	elbow_flex_l	pro_sup_l	wrist_flex_l	wrist_dev_l
      1.37288136	      3.50293149	      0.82765841	    100.46326514	      0.14081567	      0.59538918	      0.87049763	      3.78165817	     -0.08936068	    -12.53291227	      4.51403726	      0.07878481	     27.50285785	     14.39795650	      0.00000000	      6.02668273	      1.04297632	      9.40386623	      6.08793021	      0.10625443	     19.79757382	     -8.21259346	      0.00000000	      0.17261302	     -0.24886551	     -0.99698038	      0.32055965	     -0.33099113	     -1.05929165	      0.28358594	     -0.60509161	     -1.05929165	      0.19727943	     -0.60509161	     -0.87235783	      0.16028845	     -0.50748655	     -0.81004656	      0.09863108	     -0.38549268	     -0.74773528	      1.23295757	     -2.81521644	     -5.54490577	      0.00000000	      0.00000000	      9.18480142	     -0.55703027	     15.84932668	     19.33180243	    -14.84923204	     42.00118761	    121.34539249	     85.39782846	     -1.89089676	     28.64657934	     51.48014319	    -29.13581218	    -25.59800412	     57.40923000	     80.78392032	     -7.29557218	     16.21887309
      1.38983051	      3.45485590	      0.86319073	    100.03629695	      0.14112636	      0.59514124	      0.87067032	      3.88549641	     -0.13644069	    -11.96690956	      4.67300674	      0.08155935	     27.59055532	     14.26605126	      0.00000000	      5.83715504	      1.14306012	     10.83782161	      5.93500812	      0.10358543	     18.62243999	    -10.94558669	      0.00000000	      0.16083266	     -0.24130982	     -0.87467519	      0.29868234	     -0.32094206	     -0.92934239	      0.26423199	     -0.58672070	     -0.92934239	      0.18381565	     -0.58672070	     -0.76534079	      0.14934921	     -0.49207898	     -0.71067359	      0.09189978	     -0.37378891	     -0.65600639	      1.14881164	     -2.72974494	     -4.86468102	      0.00000000	      0.00000000	      9.38428114	     -0.82408094	     15.36287435	     20.48696444	    -14.70904115	     42.26982811	    120.12437037	     81.86275322	      1.22045361	     30.61397095	     51.99557963	    -28.53467555	    -25.95199962	     56.34351715	     81.42937637	     -6.85728950	     15.02469591
      1.40677966	      3.30026129	      0.86463399	     99.92378304	      0.14106674	      0.59477030	      0.87096135	      3.98321842	     -0.32682699	    -11.93868051	      4.91763446	      0.08582891	     27.67058730	     14.22799741	      0.00000000	      5.84872735	      1.33646088	     10.97210495	      6.04372913	      0.10548297	     18.24663277	    -11.47008483	      0.00000000	      0.15019048	     -0.25121745	     -0.86147793	      0.27891873	     -0.33411920	     -0.91532030	      0.24674793	     -0.61081010	     -0.91532030	      0.17165269	     -0.61081010	     -0.75379319	      0.13946688	     -0.51228262	     -0.69995082	      0.08581884	     -0.38913582	     -0.64610845	      1.07279554	     -2.84182200	     -4.79128181	      0.00000000	      0.00000000	      9.57437148	     -0.79583309	     15.23862525	     21.96484161	    -14.72610741	     43.47585147	    119.04580724	     81.61091740	      1.87694152	     31.00404722	     52.26385757	    -28.29571414	    -26.39432619	     55.66947607	     81.70761289	     -6.86061937	     15.03074710
      1.42372881	      3.25367108	      0.78817908	     99.70657884	      0.14094712	      0.59432516	      0.87114277	      4.18457101	     -0.43592554	    -11.98538930	      5.22150613	      0.09113247	     27.63346273	     14.33301761	      0.00000000	      5.86615713	      1.44583184	     11.69125600	      5.95542008	      0.10394169	     17.74629036	    -12.87802870	      0.00000000	      0.15617506	     -0.23871575	     -0.88036491	      0.29003270	     -0.31749195	     -0.93538771	      0.25658000	     -0.58041348	     -0.93538771	      0.17849247	     -0.58041348	     -0.77031929	      0.14502416	     -0.48678916	     -0.71529649	      0.08923843	     -0.36977070	     -0.66027368	      1.11554282	     -2.70040034	     -4.89632550	      0.00000000	      0.00000000	      9.77202332	     -0.71719626	     16.22023391	     23.22108574	    -14.49884132	     44.50034213	    117.79644291	     80.19561706	      3.32512562	     31.37217671	     52.08020903	    -28.04048703	    -27.90388022	     55.24340486	     83.28874883	     -6.07292029	     15.13766723
